<?xml version="1.0" encoding="utf-8"?>
<?xml-stylesheet type="text/xsl" href="rss1.xsl"?>
<rss version="2.0" xmlns:atom="http://www.w3.org/2005/Atom" xmlns:content="http://purl.org/rss/1.0/modules/content/" xmlns:dc="http://purl.org/dc/elements/1.1/" xmlns:media="http://search.yahoo.com/mrss/">
<channel>
 <title>Getty</title>
 <link>http://www.gettyimg.com/</link>
 <atom:link href="http://www.gettyimg.com/" rel="self" type="application/rss+xml" />

 
                <item>
                <title><![CDATA[【Off-Topic】Doing something stupid...]]></title>
                <link><![CDATA[https://sharemania.us/threads/doing-something-stupid.223081/]]></link>
                <description><![CDATA[<article>
<blockquote class="messageText SelectQuoteContainer ugc baseHtml">
Just click like. That's it.<br>
<br>
<div class="bbCodeBlock bbCodeVfcHH HiddenContent">
<div class="attribution type">Hidden Content:</div>
<blockquote>You must either reply or click 'Like' to see the hidden information contained here.</blockquote>
</div>
<div class="bbCodeBlock bbCodeVfcHH HiddenContent">
<div class="attribution type">Hidden Content:</div>
<blockquote>You must either reply or click 'Like' to see the hidden information contained here.</blockquote>
</div>
<div class="bbCodeBlock bbCodeVfcHH HiddenContent">
<div class="attribution type">Hidden Content:</div>
<blockquote>You must either reply or click 'Like' to see the hidden information contained here.</blockquote>
</div>
<div class="bbCodeBlock bbCodeVfcHH HiddenContent">
<div class="attribution type">Hidden Content:</div>
<blockquote>You must either reply or click 'Like' to see the hidden information contained here.</blockquote>
</div>
<div class="bbCodeBlock bbCodeVfcHH HiddenContent">
<div class="attribution type">Hidden Content:</div>
<blockquote>You must either reply or click 'Like' to see the hidden information contained here.</blockquote>
</div>
<div class="bbCodeBlock bbCodeVfcHH HiddenContent">
<div class="attribution type">Hidden Content:</div>
<blockquote>You must either reply or click 'Like' to see the hidden information contained here.</blockquote>
</div>
<div class="bbCodeBlock bbCodeVfcHH HiddenContent">
<div class="attribution type">Hidden Content:</div>
<blockquote>You must either reply or click 'Like' to see the hidden information contained here.</blockquote>
</div>
<div class="bbCodeBlock bbCodeVfcHH HiddenContent">
<div class="attribution type">Hidden Content:</div>
<blockquote>You must either reply or click 'Like' to see the hidden information contained here.</blockquote>
</div>
<div class="bbCodeBlock bbCodeVfcHH HiddenContent">
<div class="attribution type">Hidden Content:</div>
<blockquote>You must reply before you can see the hidden data contained here.</blockquote>
</div>[/HIDE]
<div class="messageTextEndMarker">&nbsp;</div>
</blockquote>
</article>]]></description>
                <author><![CDATA[charlescanlom]]></author>
                </item>

                
                <item>
                <title><![CDATA[【Interviews / TV shows / Others】WEB-RiP - BTS (RM) - It's 5 PM, and This is Kim Namjun. #2023BTSFESTA - 06/17/23 Weverse WEB-RiP]]></title>
                <link><![CDATA[https://sharemania.us/threads/bts-rm-its-5-pm-and-this-is-kim-namjun-2023btsfesta-06-17-23-weverse-web-rip.223080/]]></link>
                <description><![CDATA[<article>
<blockquote class="messageText SelectQuoteContainer ugc baseHtml">
<img src="https://i.imgur.com/3j8P7WM.jpg" class="bbCodeImage LbImage" alt="[​IMG]" data-url="https://i.imgur.com/3j8P7WM.jpg" style=""> <br>
This is during BTS FESTA 2023 celebrating its 10th anniversary. This includes subtitles in <b>Spanish, Indonesian, Japannese, Korean, </b>and <b>English</b> (obiously) through the Subtitle Settings of your video player. <br>
<div class="ToggleTriggerAnchor bbCodeSpoilerContainer">
<button type="button" class="button bbCodeSpoilerButton ToggleTrigger Tooltip JsOnly" data-target="> .SpoilerTarget"><span>Spoiler: <span class="SpoilerTitle">MediaInfo</span></span></button>
<div class="SpoilerTarget bbCodeSpoilerText">General<br>
Unique ID : 129996939554390322935229978002256642539 (0x61CC7FF69AFB7FF52920A2D2C42541EB)<br>
Complete name : E:\Charles' Stuff\Downloads\Video\It's 5 PM, and This is Kim Namjun. #2023BTSFESTA.mkv<br>
Format : Matroska<br>
Format version : Version 4<br>
File size : 1.06 GiB<br>
Duration : 1 h 31 min<br>
Overall bit rate : 1 666 kb/s<br>
Frame rate : 30.000 FPS<br>
Encoded date : 2023-06-21 14:34:17 UTC<br>
Writing application : mkvmerge v72.0.0 ('Minuano (Six-eight)') 64-bit<br>
Writing library : libebml v1.4.4 + libmatroska v1.7.1<br>
<br>
Video<br>
ID : 1<br>
Format : AVC<br>
Format/Info : Advanced Video Codec<br>
Format profile : High@L4<br>
Format settings : CABAC / 4 Ref Frames<br>
Format settings, CABAC : Yes<br>
Format settings, Reference : 4 frames<br>
Codec ID : V_MPEG4/ISO/AVC<br>
Duration : 1 h 31 min<br>
Bit rate : 1 471 kb/s<br>
Width : 1 920 pixels<br>
Height : 1 080 pixels<br>
Display aspect ratio : 16:9<br>
Frame rate mode : Constant<br>
Frame rate : 30.000 FPS<br>
Color space : YUV<br>
Chroma subsampling : 4:2:0<br>
Bit depth : 8 bits<br>
Scan type : Progressive<br>
Bits/(Pixel*Frame) : 0.024<br>
Stream size : 960 MiB (88%)<br>
Title : Korean<br>
Language : Korean<br>
Default : Yes<br>
Forced : No<br>
Color range : Limited<br>
Color primaries : BT.709<br>
Transfer characteristics : BT.709<br>
Matrix coefficients : BT.709<br>
<br>
Audio<br>
ID : 2<br>
Format : AAC LC<br>
Format/Info : Advanced Audio Codec Low Complexity<br>
Codec ID : A_AAC-2<br>
Duration : 1 h 31 min<br>
Bit rate : 192 kb/s<br>
Channel(s) : 2 channels<br>
Channel layout : L R<br>
Sampling rate : 44.1 kHz<br>
Frame rate : 43.066 FPS (1024 SPF)<br>
Compression mode : Lossy<br>
Stream size : 125 MiB (12%)<br>
Title : Korean<br>
Language : Korean<br>
Default : Yes<br>
Forced : No<br>
<br>
Text #1<br>
ID : 3<br>
Format : S_TEXT/WEBVTT<br>
Codec ID : S_TEXT/WEBVTT<br>
Duration : 1 h 26 min<br>
Bit rate : 80 b/s<br>
Frame rate : 0.225 FPS<br>
Count of elements : 1171<br>
Stream size : 50.9 KiB (0%)<br>
Title : English<br>
Language : English<br>
Default : Yes<br>
Forced : No<br>
<br>
Text #2<br>
ID : 4<br>
Format : S_TEXT/WEBVTT<br>
Codec ID : S_TEXT/WEBVTT<br>
Duration : 1 h 26 min<br>
Bit rate : 85 b/s<br>
Frame rate : 0.225 FPS<br>
Count of elements : 1171<br>
Stream size : 54.2 KiB (0%)<br>
Title : Espanol<br>
Language : Spanish<br>
Default : Yes<br>
Forced : No<br>
<br>
Text #3<br>
ID : 5<br>
Format : S_TEXT/WEBVTT<br>
Codec ID : S_TEXT/WEBVTT<br>
Duration : 1 h 26 min<br>
Bit rate : 84 b/s<br>
Frame rate : 0.225 FPS<br>
Count of elements : 1171<br>
Stream size : 53.6 KiB (0%)<br>
Title : Indonesian<br>
Language : Indonesian<br>
Default : Yes<br>
Forced : No<br>
<br>
Text #4<br>
ID : 6<br>
Format : S_TEXT/WEBVTT<br>
Codec ID : S_TEXT/WEBVTT<br>
Duration : 1 h 26 min<br>
Bit rate : 103 b/s<br>
Frame rate : 0.225 FPS<br>
Count of elements : 1171<br>
Stream size : 65.8 KiB (0%)<br>
Title : Japanese<br>
Language : Japanese<br>
Default : Yes<br>
Forced : No<br>
<br>
Text #5<br>
ID : 7<br>
Format : S_TEXT/WEBVTT<br>
Codec ID : S_TEXT/WEBVTT<br>
Duration : 1 h 26 min<br>
Bit rate : 94 b/s<br>
Frame rate : 0.225 FPS<br>
Count of elements : 1171<br>
Stream size : 59.8 KiB (0%)<br>
Title : Korean<br>
Language : Korean<br>
Default : Yes<br>
Forced : No</div>
</div>
<div class="bbCodeBlock bbCodeVfcHH HiddenContent">
<div class="attribution type">Hidden Content:</div>
<blockquote>You must either reply or click 'Like' to see the hidden information contained here.</blockquote>
</div>
<div class="messageTextEndMarker">&nbsp;</div>
</blockquote>
</article>]]></description>
                <author><![CDATA[charlescanlom]]></author>
                </item>

                </channel></rss>